<svg width="100" height="100" viewBox="0 0 100 100" fill="none" xmlns="http://www.w3.org/2000/svg">
<g clip-path="url(#clip0_445_6461)">
<path d="M18.3745 31.2405H7.36279V63.6413H18.3745V31.2405Z" fill="#A7D9DB"/>
<path d="M67.5667 53.4104H77.288V67.0517L76.6157 69.0903L75.0162 70.4674H72.43H67.5667V53.4104Z" fill="#A7D9DB"/>
<path d="M67.5667 0.542175V29.5326H77.288V3.9525L76.5506 1.83257L75.0162 0.542175H67.5667Z" fill="#A7D9DB"/>
<path d="M21.2698 77.5536L1.71875 97.1047L4.02302 98.8831L6.57128 99.4578L9.02194 98.9319L26.1115 82.3953L21.2698 77.5536Z" fill="#A7D9DB"/>
<path d="M89.8179 29.5325V36.3586H94.3397V39.7689H89.8179V53.8548H99.4579V29.5325H89.8179Z" fill="#A7D9DB"/>
<path d="M73.8776 71.0095H50.1085V69.9252H73.8776C74.6388 69.9237 75.3683 69.6203 75.9061 69.0816C76.4438 68.5428 76.7458 67.8128 76.7458 67.0516V53.4103H77.8302V67.0516C77.8302 68.1004 77.4138 69.1062 76.6727 69.8483C75.9316 70.5904 74.9264 71.0081 73.8776 71.0095ZM46.1559 71.0095H26.5614V69.9252H46.1559V71.0095ZM22.6089 71.0095H3.9579C2.90913 71.0081 1.90389 70.5904 1.1628 69.8483C0.421719 69.1062 0.00537011 68.1004 0.00537109 67.0516V3.95247C0.0068055 2.90464 0.423727 1.90015 1.16466 1.15922C1.90558 0.418295 2.91007 0.00137337 3.9579 -6.10352e-05H73.8993C74.9472 0.00137337 75.9517 0.418295 76.6926 1.15922C77.4335 1.90015 77.8504 2.90464 77.8519 3.95247V29.5326H76.7675V3.95247C76.7661 3.19223 76.4635 2.46354 75.9259 1.92597C75.3883 1.3884 74.6596 1.08574 73.8993 1.0843H3.9579C3.19766 1.08574 2.4689 1.3884 1.93133 1.92597C1.39376 2.46354 1.09117 3.19223 1.08973 3.95247V67.0516C1.08973 67.8128 1.39176 68.5428 1.92948 69.0816C2.46721 69.6203 3.19672 69.9237 3.9579 69.9252H22.6089V71.0095Z" fill="black"/>
<path d="M23.2597 24.9674H6.82617V13.652H23.2597V24.9674ZM7.91054 23.883H22.1754V14.7364H7.91054V23.883Z" fill="black"/>
<path d="M33.4904 18.1414H27.2878V13.6467H33.4904V18.1414ZM28.3722 17.0571H32.406V14.7311H28.3722V17.0571Z" fill="black"/>
<path d="M57.3681 18.1414H35.8164V13.6467H57.3681V18.1414ZM36.9008 17.0571H56.2838V14.7311H36.9008V17.0571Z" fill="black"/>
<path d="M64.1888 18.1414H59.6941V13.6467H64.1888V18.1414ZM60.7785 17.0571H63.1044V14.7311H60.7785V17.0571Z" fill="black"/>
<path d="M42.0245 24.9675H27.2935V20.4728H42.0245V24.9675ZM28.3778 23.8832H40.9401V21.5572H28.3778V23.8832Z" fill="black"/>
<path d="M48.8397 24.9675H44.345V20.4728H48.8397V24.9675ZM45.4293 23.8832H47.7553V21.5572H45.4293V23.8832Z" fill="black"/>
<path d="M21.0095 64.1834H6.82056V30.6983H43.7214V49.897H42.6371V31.7827H7.90492V63.0991H21.0095V64.1834Z" fill="black"/>
<path d="M43.7216 64.1834H24.4199V63.0991H42.6372V53.8549H43.7216V64.1834Z" fill="black"/>
<path d="M24.7941 81.0724L24.024 80.3079L27.9765 76.3608L28.7411 77.1253L24.7941 81.0724ZM19.6812 75.9542L18.9114 75.1897L22.8639 71.2372L23.6282 72.0071L19.6812 75.9542Z" fill="black"/>
<path d="M6.57665 100C5.27585 100.003 4.00346 99.6188 2.92116 98.8971C1.83887 98.1755 0.99529 97.1487 0.497495 95.9469C-0.000299476 94.7451 -0.129767 93.4225 0.125275 92.1469C0.380317 90.8714 1.00835 89.7003 1.92999 88.7823L17.5993 73.1079L26.8921 82.4009L11.2231 98.0753C10.6141 98.6872 9.88999 99.1724 9.09245 99.5027C8.29492 99.8331 7.4399 100.002 6.57665 100ZM17.5993 74.6423L2.69455 89.5468C1.66497 90.5757 1.08625 91.9714 1.08574 93.4269C1.08523 94.8825 1.66304 96.2786 2.6919 97.3082C3.72076 98.3378 5.11636 98.9164 6.57189 98.9169C8.02742 98.9174 9.42362 98.3398 10.4532 97.3109L25.3576 82.4009L17.5993 74.6423Z" fill="black"/>
<path d="M20.9989 88.278L11.7058 78.985L17.5885 73.1024L26.8813 82.3954L20.9989 88.278ZM13.2402 78.985L20.9989 86.7436L25.3363 82.4061L17.5777 74.6476L13.2402 78.985Z" fill="black"/>
<path d="M100 53.9524H61.7166L51.323 43.5588L52.0875 42.7943L62.1612 52.868H98.9157V30.0747H62.1612L52.0875 40.1485L51.323 39.384L61.7166 28.9904H100V53.9524Z" fill="black"/>
<path d="M69.307 40.3114H63.1045V35.8112H69.307V40.3114ZM64.1889 39.227H68.2227V36.8956H64.1889V39.227Z" fill="black"/>
<path d="M94.8873 40.3114H71.6331V35.8112H94.8873V40.3114ZM72.7174 39.227H93.8029V36.8956H72.7174V39.227Z" fill="black"/>
<path d="M76.1276 47.1318H63.1152V42.6371H76.1276V47.1318ZM64.1996 46.0474H75.0432V43.7214H64.1996V46.0474Z" fill="black"/>
<path d="M86.3587 47.1318H78.4536V42.6371H86.3587V47.1318ZM79.538 46.0474H85.2743V43.7214H79.538V46.0474Z" fill="black"/>
<path d="M5.66039 7.90511C5.21514 7.90511 4.7799 7.77302 4.40977 7.52554C4.03963 7.27806 3.75102 6.9263 3.58088 6.51484C3.41074 6.10338 3.36654 5.65067 3.4538 5.21406C3.54106 4.77744 3.75595 4.37658 4.07117 4.06212C4.38639 3.74766 4.78781 3.53374 5.22463 3.44753C5.66145 3.36132 6.11397 3.40671 6.52502 3.57785C6.93607 3.74898 7.28708 4.03819 7.53367 4.40892C7.78025 4.77966 7.91146 5.21522 7.91039 5.66047C7.90895 6.25628 7.67115 6.82717 7.24934 7.24797C6.82753 7.66876 6.2562 7.90511 5.66039 7.90511ZM5.66039 4.49476C5.42984 4.49476 5.20427 4.56311 5.01258 4.6912C4.82088 4.81929 4.67166 5.00138 4.58344 5.21439C4.49521 5.42739 4.47201 5.66176 4.51699 5.88788C4.56197 6.114 4.67297 6.3217 4.836 6.48473C4.99902 6.64775 5.20686 6.75876 5.43298 6.80374C5.6591 6.84871 5.89347 6.82565 6.10647 6.73742C6.31947 6.64919 6.5015 6.49978 6.62959 6.30808C6.75768 6.11638 6.82603 5.89102 6.82603 5.66047C6.82603 5.35131 6.70312 5.05482 6.48451 4.83621C6.2659 4.6176 5.96955 4.49476 5.66039 4.49476Z" fill="black"/>
<path d="M10.7786 7.905C10.3331 7.90607 9.89721 7.77484 9.52636 7.52801C9.15551 7.28119 8.86632 6.92987 8.69535 6.5185C8.52437 6.10714 8.47925 5.65429 8.56589 5.21732C8.65254 4.78035 8.86693 4.37893 9.18194 4.06393C9.49694 3.74892 9.89842 3.53453 10.3354 3.44788C10.7724 3.36124 11.2252 3.40623 11.6366 3.57721C12.0479 3.74818 12.3995 4.03743 12.6463 4.40828C12.8931 4.77913 13.0241 5.21488 13.023 5.66036C13.0216 6.25523 12.7847 6.82529 12.3641 7.24594C11.9434 7.66658 11.3734 7.90357 10.7786 7.905ZM10.7786 4.49465C10.5478 4.49358 10.3218 4.56101 10.1294 4.68844C9.93702 4.81588 9.7867 4.9976 9.69764 5.2105C9.60858 5.42341 9.58471 5.65791 9.62908 5.88439C9.67344 6.11087 9.78395 6.31913 9.94676 6.4827C10.1096 6.64627 10.3175 6.75781 10.5437 6.80323C10.77 6.84865 11.0047 6.82591 11.218 6.73784C11.4313 6.64977 11.6136 6.50031 11.7419 6.3085C11.8703 6.11669 11.9386 5.89114 11.9386 5.66036C11.9372 5.35257 11.8148 5.05769 11.5977 4.83954C11.3805 4.62139 11.0863 4.4975 10.7786 4.49465Z" fill="black"/>
<path d="M58.5286 43.7214H42.6372V39.2268H58.5286C58.833 39.2118 59.1372 39.2588 59.4229 39.365C59.7085 39.4712 59.9699 39.6343 60.1906 39.8445C60.4113 40.0546 60.587 40.3075 60.7071 40.5876C60.8272 40.8677 60.889 41.1693 60.889 41.4741C60.889 41.7788 60.8272 42.0805 60.7071 42.3606C60.587 42.6407 60.4113 42.8936 60.1906 43.1037C59.9699 43.3139 59.7085 43.477 59.4229 43.5832C59.1372 43.6893 58.833 43.7364 58.5286 43.7214ZM43.7216 42.637H58.5286C58.688 42.6479 58.8479 42.626 58.9985 42.5725C59.149 42.5189 59.287 42.435 59.4038 42.326C59.5206 42.2169 59.6136 42.085 59.6773 41.9385C59.7409 41.7919 59.7736 41.6338 59.7736 41.4741C59.7736 41.3143 59.7409 41.1563 59.6773 41.0097C59.6136 40.8632 59.5206 40.7313 59.4038 40.6222C59.287 40.5131 59.149 40.4292 58.9985 40.3757C58.8479 40.3222 58.688 40.3002 58.5286 40.3111H43.7216V42.637Z" fill="black"/>
<path d="M36.3587 79.5327C33.2157 79.5327 30.1433 78.6006 27.53 76.8545C24.9167 75.1083 22.88 72.6265 21.6772 69.7227C20.4744 66.8189 20.1597 63.6237 20.7729 60.5411C21.386 57.4585 22.8995 54.6269 25.122 52.4045C27.3444 50.182 30.1761 48.6685 33.2587 48.0553C36.3413 47.4421 39.5365 47.7568 42.4403 48.9596C45.3441 50.1624 47.8259 52.1993 49.572 54.8126C51.3182 57.4259 52.2501 60.4983 52.2501 63.6413C52.2552 66.0881 51.687 68.502 50.591 70.6897C49.284 73.3478 47.2574 75.5859 44.7414 77.1492C42.2254 78.7125 39.3209 79.5383 36.3587 79.5327ZM36.3587 48.8289C33.7191 48.8294 31.1277 49.5353 28.8524 50.8735C26.5771 52.2118 24.7008 54.1337 23.4176 56.4404C22.1344 58.7472 21.4908 61.355 21.5536 63.9939C21.6164 66.6328 22.3832 69.2069 23.7747 71.45C25.1663 73.693 27.1321 75.5235 29.4684 76.7519C31.8048 77.9804 34.4271 78.5621 37.0637 78.4371C39.7004 78.312 42.2557 77.4846 44.4653 76.0405C46.6749 74.5964 48.4584 72.5881 49.6313 70.2234C50.653 68.18 51.1822 65.9258 51.1766 63.6413C51.1737 59.7127 49.6115 55.946 46.8331 53.1686C44.0547 50.3912 40.2873 48.8303 36.3587 48.8289ZM36.3587 76.1277C33.0529 76.1239 29.8839 74.8075 27.5483 72.468C27.024 71.9489 26.5487 71.3826 26.128 70.7764C24.5351 68.4855 23.7565 65.7265 23.9169 62.9409C24.0773 60.1552 25.1672 57.5038 27.0125 55.4108C28.8577 53.3178 31.3516 51.9041 34.0952 51.3959C36.8389 50.8877 39.6737 51.3144 42.1462 52.6076C44.6187 53.9009 46.586 55.986 47.7334 58.5294C48.8809 61.0728 49.1422 63.9276 48.4755 66.6371C47.8088 69.3465 46.2526 71.7541 44.056 73.4747C41.8593 75.1953 39.149 76.1294 36.3587 76.1277ZM36.3587 52.2718C34.2776 52.2701 32.2359 52.839 30.4554 53.9164C28.6748 54.9939 27.2237 56.5387 26.2596 58.3831C25.2955 60.2274 24.8553 62.3007 24.987 64.3777C25.1186 66.4547 25.8169 68.4559 27.0061 70.1637C27.3928 70.7151 27.8265 71.2321 28.302 71.709C29.6274 73.0288 31.2574 74.0019 33.0482 74.542C34.839 75.0822 36.7352 75.1728 38.5693 74.806C40.4034 74.4391 42.1191 73.626 43.5644 72.4386C45.0096 71.2512 46.1399 69.726 46.8556 67.9979C47.5713 66.2698 47.8503 64.392 47.6678 62.5305C47.4853 60.669 46.847 58.8811 45.8093 57.3249C44.7717 55.7686 43.3666 54.492 41.7184 53.6078C40.0701 52.7237 38.2292 52.2592 36.3587 52.2555V52.2718Z" fill="black"/>
</g>
<defs>
<clipPath id="clip0_445_6461">
<rect width="100" height="100" fill="white"/>
</clipPath>
</defs>
</svg>
