<svg width="352" height="300" viewBox="0 0 352 300" fill="none" xmlns="http://www.w3.org/2000/svg">
<path d="M237.523 299.994H176.164C161.361 300.15 146.675 297.247 132.956 291.452C119.237 285.657 106.756 277.085 96.2352 266.232C85.7146 255.378 77.363 242.459 71.6633 228.221C65.9636 213.984 63.0288 198.71 63.0288 183.283C63.0288 167.855 65.9636 152.581 71.6633 138.343C77.363 124.106 85.7146 111.187 96.2352 100.333C106.756 89.4802 119.237 80.9081 132.956 75.113C146.675 69.3178 161.361 66.4145 176.164 66.5709H269.41V69.81H176.164C161.771 69.6558 147.491 72.4769 134.15 78.1103C120.81 83.7436 108.674 92.0774 98.4437 102.63C88.2134 113.182 80.0917 125.743 74.5492 139.587C69.0066 153.431 66.153 168.282 66.153 183.283C66.153 198.283 69.0066 213.134 74.5492 226.978C80.0917 240.822 88.2134 253.383 98.4437 263.935C108.674 274.488 120.81 282.821 134.15 288.455C147.491 294.088 161.771 296.909 176.164 296.755H237.523C254.027 296.733 269.848 289.89 281.517 277.727C293.186 265.564 299.749 249.075 299.767 231.876V190.091L320.432 175.694C327.673 170.679 333.61 163.874 337.714 155.886C341.817 147.897 343.96 138.975 343.95 129.914C343.958 116.185 339.457 102.866 331.195 92.1723C322.933 81.4782 311.408 74.0525 298.536 71.1296L299.203 67.9746C312.759 71.0609 324.896 78.8835 333.6 90.1449C342.304 101.406 347.053 115.43 347.059 129.89C347.068 139.485 344.799 148.932 340.454 157.391C336.11 165.85 329.825 173.057 322.158 178.37L302.876 191.758V231.816C302.873 249.884 295.989 267.213 283.735 279.996C271.482 292.779 254.861 299.972 237.523 299.994ZM187.446 223.214H181.068C162.016 223.214 147.684 208.95 147.684 190.043H150.791C150.791 207.102 163.823 220.035 181.102 220.035H187.48C192.152 220.044 196.766 218.952 200.976 216.841C205.186 214.731 208.884 211.656 211.793 207.846C214.998 203.659 219.068 200.28 223.701 197.962C228.333 195.643 233.408 194.446 238.547 194.458H257.185C259.597 194.521 261.998 194.081 264.245 193.162C266.491 192.244 268.539 190.866 270.267 189.11C271.995 187.355 273.368 185.256 274.306 182.939C275.243 180.621 275.726 178.132 275.726 175.617C275.726 173.101 275.243 170.612 274.306 168.294C273.368 165.977 271.995 163.878 270.267 162.123C268.539 160.367 266.491 158.989 264.245 158.071C261.998 157.152 259.597 156.712 257.185 156.775H222.488V153.536H257.185C260.009 153.468 262.818 153.988 265.446 155.067C268.074 156.146 270.469 157.761 272.489 159.818C274.51 161.875 276.115 164.333 277.211 167.046C278.307 169.759 278.872 172.673 278.872 175.617C278.872 178.56 278.307 181.474 277.211 184.187C276.115 186.9 274.51 189.358 272.489 191.415C270.469 193.472 268.074 195.087 265.446 196.166C262.818 197.245 260.009 197.765 257.185 197.697H238.547C233.874 197.684 229.259 198.772 225.046 200.881C220.834 202.99 217.133 206.064 214.222 209.874C211.019 214.068 206.946 217.453 202.308 219.773C197.671 222.094 192.59 223.291 187.446 223.274V223.214Z" fill="black"/>
<path d="M104.986 207.966C100.793 207.966 96.6955 206.67 93.21 204.243C89.7245 201.815 87.0083 198.366 85.4046 194.329C83.8009 190.293 83.3819 185.851 84.2006 181.567C85.0193 177.282 87.0386 173.346 90.0038 170.258C92.9689 167.17 96.7461 165.067 100.858 164.216C104.97 163.366 109.232 163.805 113.104 165.478C116.976 167.152 120.286 169.984 122.613 173.618C124.941 177.252 126.181 181.523 126.179 185.892C126.173 191.746 123.938 197.359 119.965 201.498C115.991 205.636 110.603 207.963 104.986 207.966ZM104.986 167.045C101.409 167.045 97.912 168.15 94.9379 170.221C91.9638 172.292 89.6458 175.235 88.277 178.679C86.9081 182.123 86.5505 185.913 87.2483 189.569C87.9461 193.225 89.6684 196.583 92.1977 199.219C94.7269 201.854 97.9496 203.65 101.458 204.377C104.966 205.104 108.602 204.731 111.907 203.304C115.211 201.878 118.036 199.462 120.023 196.363C122.01 193.263 123.071 189.619 123.071 185.892C123.075 183.413 122.611 180.958 121.704 178.666C120.798 176.375 119.467 174.292 117.787 172.537C116.107 170.782 114.112 169.39 111.916 168.439C109.719 167.488 107.364 166.998 104.986 166.997V167.045Z" fill="black"/>
<path d="M129.529 156.775C125.337 156.775 121.24 155.48 117.755 153.053C114.269 150.626 111.553 147.177 109.949 143.141C108.345 139.105 107.925 134.665 108.743 130.38C109.561 126.096 111.579 122.161 114.543 119.072C117.507 115.983 121.283 113.879 125.394 113.027C129.505 112.175 133.767 112.612 137.639 114.284C141.512 115.956 144.822 118.787 147.151 122.419C149.479 126.051 150.722 130.321 150.722 134.689C150.719 140.546 148.485 146.162 144.511 150.303C140.538 154.444 135.149 156.772 129.529 156.775ZM129.529 115.854C125.952 115.854 122.455 116.96 119.48 119.031C116.506 121.103 114.188 124.047 112.819 127.492C111.451 130.936 111.093 134.726 111.792 138.382C112.491 142.039 114.215 145.397 116.745 148.032C119.276 150.668 122.499 152.462 126.008 153.188C129.516 153.914 133.153 153.539 136.458 152.11C139.762 150.682 142.586 148.264 144.572 145.163C146.557 142.062 147.617 138.417 147.614 134.689C147.611 129.693 145.704 124.902 142.313 121.37C138.922 117.838 134.324 115.854 129.529 115.854Z" fill="black"/>
<path d="M183.52 136.309C179.328 136.309 175.23 135.013 171.745 132.586C168.259 130.158 165.543 126.708 163.939 122.672C162.335 118.635 161.916 114.194 162.735 109.909C163.553 105.625 165.573 101.689 168.538 98.601C171.504 95.5126 175.281 93.41 179.393 92.5592C183.505 91.7083 187.766 92.1475 191.639 93.821C195.511 95.4945 198.82 98.3272 201.147 101.961C203.475 105.595 204.716 109.866 204.714 114.235C204.708 120.089 202.472 125.702 198.499 129.841C194.525 133.979 189.138 136.306 183.52 136.309ZM183.52 95.3875C179.943 95.3875 176.447 96.4928 173.473 98.5638C170.499 100.635 168.181 103.578 166.812 107.022C165.443 110.466 165.085 114.255 165.782 117.911C166.48 121.567 168.203 124.926 170.732 127.561C173.261 130.197 176.484 131.992 179.992 132.719C183.5 133.447 187.136 133.074 190.441 131.647C193.746 130.221 196.57 127.805 198.558 124.705C200.545 121.606 201.605 117.962 201.605 114.235C201.602 109.237 199.696 104.445 196.305 100.911C192.914 97.3773 188.316 95.3907 183.52 95.3875Z" fill="black"/>
<path d="M129.529 259.073C125.337 259.073 121.239 257.777 117.754 255.35C114.268 252.922 111.552 249.472 109.948 245.436C108.344 241.399 107.925 236.958 108.744 232.673C109.562 228.389 111.582 224.453 114.547 221.365C117.512 218.277 121.29 216.174 125.402 215.323C129.514 214.472 133.775 214.911 137.648 216.585C141.52 218.258 144.829 221.091 147.156 224.725C149.484 228.358 150.725 232.63 150.722 236.998C150.716 242.853 148.481 248.466 144.508 252.605C140.534 256.743 135.147 259.07 129.529 259.073ZM129.529 218.151C125.952 218.151 122.456 219.257 119.482 221.328C116.508 223.399 114.19 226.342 112.821 229.786C111.452 233.23 111.094 237.019 111.792 240.675C112.489 244.331 114.212 247.69 116.741 250.325C119.27 252.961 122.493 254.756 126.001 255.483C129.509 256.211 133.145 255.837 136.45 254.411C139.755 252.984 142.58 250.569 144.567 247.469C146.554 244.37 147.615 240.726 147.615 236.998C147.611 232.001 145.705 227.209 142.314 223.675C138.923 220.141 134.325 218.155 129.529 218.151Z" fill="black"/>
<path d="M183.52 279.539C179.328 279.539 175.231 278.244 171.746 275.817C168.26 273.39 165.544 269.941 163.94 265.905C162.336 261.869 161.916 257.428 162.734 253.144C163.552 248.86 165.57 244.924 168.534 241.836C171.498 238.747 175.274 236.643 179.385 235.791C183.496 234.939 187.758 235.376 191.631 237.048C195.503 238.719 198.813 241.55 201.142 245.182C203.47 248.814 204.714 253.085 204.714 257.453C204.711 263.309 202.476 268.925 198.502 273.067C194.529 277.208 189.14 279.536 183.52 279.539ZM183.52 238.618C179.943 238.618 176.446 239.723 173.471 241.795C170.497 243.866 168.179 246.811 166.81 250.255C165.442 253.7 165.085 257.49 165.783 261.146C166.482 264.802 168.206 268.161 170.736 270.796C173.267 273.431 176.49 275.225 179.999 275.951C183.508 276.677 187.145 276.302 190.449 274.874C193.754 273.445 196.577 271.028 198.563 267.927C200.549 264.826 201.608 261.181 201.605 257.453C201.602 252.456 199.695 247.666 196.304 244.134C192.913 240.602 188.315 238.618 183.52 238.618Z" fill="black"/>
<path d="M247.331 279.539C241.197 279.539 235.201 277.644 230.101 274.092C225.001 270.541 221.026 265.493 218.678 259.588C216.331 253.682 215.717 247.184 216.914 240.914C218.111 234.645 221.064 228.886 225.401 224.366C229.738 219.846 235.265 216.768 241.281 215.521C247.297 214.274 253.532 214.914 259.199 217.36C264.866 219.806 269.709 223.949 273.117 229.264C276.525 234.579 278.344 240.827 278.344 247.22C278.326 255.785 275.052 263.995 269.24 270.052C263.428 276.109 255.551 279.52 247.331 279.539ZM247.331 218.151C241.812 218.151 236.416 219.857 231.827 223.053C227.237 226.249 223.661 230.791 221.549 236.106C219.437 241.42 218.885 247.268 219.963 252.909C221.04 258.551 223.7 263.732 227.603 267.799C231.507 271.865 236.48 274.634 241.894 275.755C247.308 276.875 252.919 276.298 258.018 274.095C263.117 271.892 267.474 268.163 270.539 263.379C273.604 258.595 275.238 252.972 275.236 247.22C275.227 239.511 272.284 232.121 267.052 226.671C261.82 221.222 254.728 218.157 247.331 218.151Z" fill="black"/>
<path d="M301.322 136.309C297.13 136.309 293.032 135.013 289.547 132.586C286.061 130.158 283.344 126.708 281.741 122.672C280.137 118.635 279.718 114.194 280.537 109.909C281.355 105.625 283.375 101.689 286.34 98.601C289.305 95.5126 293.083 93.41 297.195 92.5592C301.306 91.7083 305.568 92.1475 309.441 93.821C313.313 95.4945 316.622 98.3272 318.949 101.961C321.277 105.595 322.517 109.866 322.515 114.235C322.506 120.088 320.27 125.699 316.297 129.837C312.324 133.975 306.939 136.303 301.322 136.309ZM301.322 95.3875C297.745 95.3875 294.249 96.4928 291.274 98.5638C288.3 100.635 285.982 103.578 284.613 107.022C283.245 110.466 282.886 114.255 283.584 117.911C284.282 121.567 286.004 124.926 288.534 127.561C291.063 130.197 294.286 131.992 297.794 132.719C301.302 133.447 304.938 133.074 308.243 131.647C311.547 130.221 314.372 127.805 316.36 124.705C318.347 121.606 319.407 117.962 319.407 114.235C319.404 109.237 317.498 104.445 314.107 100.911C310.716 97.3773 306.118 95.3907 301.322 95.3875Z" fill="black"/>
<path d="M217.791 162.738L196.114 134.509L337.549 2.36359C339.194 0.791673 341.359 -0.0545944 343.59 0.00273355C345.821 0.0600615 347.944 1.0165 349.512 2.67098C351.08 4.32547 351.972 6.54914 351.999 8.87452C352.027 11.1999 351.188 13.4459 349.66 15.1403L217.791 162.738ZM200.385 134.869L217.975 157.783L347.38 12.9328C348.101 12.1164 348.579 11.0991 348.755 10.0049C348.932 8.91062 348.799 7.78663 348.373 6.76965C347.947 5.75266 347.247 4.88658 346.357 4.27684C345.468 3.6671 344.428 3.33998 343.363 3.33534C341.985 3.32545 340.653 3.84678 339.622 4.79899L200.385 134.869Z" fill="black"/>
<path d="M217.791 162.738L196.114 134.509L219.011 113.119L241.344 136.381L217.791 162.738ZM200.385 134.869L217.975 157.783L237.016 136.465L218.896 117.582L200.385 134.869Z" fill="black"/>
<path d="M169.902 197.697C163.241 197.69 156.678 196.029 150.756 192.852C144.834 189.674 139.724 185.072 135.849 179.426L121.621 158.647H154.602C163.433 158.644 171.985 155.423 178.777 149.541L198.52 132.386L219.944 160.303L201.721 182.461C197.791 187.248 192.91 191.09 187.417 193.721C181.923 196.351 175.947 197.708 169.902 197.697ZM127.641 161.886L138.37 177.542C141.785 182.528 146.244 186.639 151.409 189.564C156.575 192.488 162.311 194.149 168.184 194.421C174.056 194.692 179.911 193.568 185.305 191.132C190.699 188.696 195.489 185.013 199.315 180.361L215.869 160.231L198.025 136.993L180.757 152.025C173.413 158.389 164.165 161.877 154.614 161.886H127.641Z" fill="black"/>
<path d="M343.582 114.39L334.258 93.7679L318.072 77.86L308.862 95.9392C312.937 96.5271 316.034 100.246 317.956 104.757C319.343 106.536 320.008 108.809 319.81 111.091C320.266 113.434 320.332 115.84 320.006 118.206C318.337 128.379 310.094 137.328 300.228 133.549C297.835 133.656 295.442 133.323 293.16 132.566C292.335 132.3 291.557 131.894 290.857 131.366L273.59 165.185C275.551 171.291 275.767 177.86 274.211 184.092C271.425 188.012 267.934 191.329 263.931 193.858C262.559 195.103 260.789 195.767 258.97 195.717C258.647 195.717 258.336 195.717 258.048 195.717L246.802 217.744C257.934 216.844 270.481 223.742 274.568 234.851C278.586 245.72 275.996 260.26 268.628 269.03C258.648 280.919 228.463 281.315 222.845 264.723L205.658 298.374H241.725L260.144 294.08L279.576 281.903L292.722 265.299L299.63 247.22L301.356 228.121V190.931L326.084 173.343L339.898 155.132L345.217 136.393L343.582 114.39Z" fill="#007DA1"/>
<path d="M124.625 160.266C124.625 160.266 157.423 189.395 176.728 176.138C196.034 162.882 348.52 14.0485 348.52 14.0485L200.488 181.405C200.488 181.405 187.825 202.387 157.284 193.954C138.992 183.288 124.625 160.266 124.625 160.266Z" fill="#007DA1"/>
<path d="M237.523 299.994H176.164C161.361 300.15 146.675 297.247 132.956 291.452C119.237 285.657 106.756 277.085 96.2352 266.232C85.7146 255.378 77.363 242.459 71.6633 228.221C65.9636 213.984 63.0288 198.71 63.0288 183.283C63.0288 167.855 65.9636 152.581 71.6633 138.343C77.363 124.106 85.7146 111.187 96.2352 100.333C106.756 89.4802 119.237 80.9081 132.956 75.113C146.675 69.3178 161.361 66.4145 176.164 66.5709H269.41V69.81H176.164C161.771 69.6558 147.491 72.4769 134.15 78.1103C120.81 83.7436 108.674 92.0774 98.4437 102.63C88.2134 113.182 80.0917 125.743 74.5492 139.587C69.0066 153.431 66.153 168.282 66.153 183.283C66.153 198.283 69.0066 213.134 74.5492 226.978C80.0917 240.822 88.2134 253.383 98.4437 263.935C108.674 274.488 120.81 282.821 134.15 288.455C147.491 294.088 161.771 296.909 176.164 296.755H237.523C254.027 296.733 269.848 289.89 281.517 277.727C293.186 265.564 299.749 249.075 299.767 231.876V190.091L320.432 175.694C327.673 170.679 333.61 163.874 337.714 155.886C341.817 147.897 343.96 138.975 343.95 129.914C343.958 116.185 339.457 102.866 331.195 92.1723C322.933 81.4782 311.408 74.0525 298.536 71.1296L299.203 67.9746C312.759 71.0609 324.896 78.8835 333.6 90.1449C342.304 101.406 347.053 115.43 347.059 129.89C347.068 139.485 344.799 148.932 340.454 157.391C336.11 165.85 329.825 173.057 322.158 178.37L302.876 191.758V231.816C302.873 249.884 295.989 267.213 283.735 279.996C271.482 292.779 254.861 299.972 237.523 299.994ZM187.446 223.214H181.068C162.016 223.214 147.684 208.95 147.684 190.043H150.791C150.791 207.102 163.823 220.035 181.102 220.035H187.48C192.152 220.044 196.766 218.952 200.976 216.841C205.186 214.731 208.884 211.656 211.793 207.846C214.998 203.659 219.068 200.28 223.701 197.962C228.333 195.643 233.408 194.446 238.547 194.458H257.185C259.597 194.521 261.998 194.081 264.245 193.162C266.491 192.244 268.539 190.866 270.267 189.11C271.995 187.355 273.368 185.256 274.306 182.939C275.243 180.621 275.726 178.132 275.726 175.617C275.726 173.101 275.243 170.612 274.306 168.294C273.368 165.977 271.995 163.878 270.267 162.123C268.539 160.367 266.491 158.989 264.245 158.071C261.998 157.152 259.597 156.712 257.185 156.775H222.488V153.536H257.185C260.009 153.468 262.818 153.988 265.446 155.067C268.074 156.146 270.469 157.761 272.489 159.818C274.51 161.875 276.115 164.333 277.211 167.046C278.307 169.759 278.872 172.673 278.872 175.617C278.872 178.56 278.307 181.474 277.211 184.187C276.115 186.9 274.51 189.358 272.489 191.415C270.469 193.472 268.074 195.087 265.446 196.166C262.818 197.245 260.009 197.765 257.185 197.697H238.547C233.874 197.684 229.259 198.772 225.046 200.881C220.834 202.99 217.133 206.064 214.222 209.874C211.019 214.068 206.946 217.453 202.308 219.773C197.671 222.094 192.59 223.291 187.446 223.274V223.214Z" fill="white"/>
<path d="M104.986 207.966C100.793 207.966 96.6955 206.67 93.21 204.243C89.7245 201.815 87.0083 198.366 85.4046 194.329C83.8009 190.293 83.3819 185.851 84.2006 181.567C85.0193 177.282 87.0386 173.346 90.0038 170.258C92.9689 167.17 96.7461 165.067 100.858 164.216C104.97 163.366 109.232 163.805 113.104 165.478C116.976 167.152 120.286 169.984 122.613 173.618C124.941 177.252 126.181 181.523 126.179 185.892C126.173 191.746 123.938 197.359 119.965 201.498C115.991 205.636 110.603 207.963 104.986 207.966ZM104.986 167.045C101.409 167.045 97.912 168.15 94.9379 170.221C91.9638 172.292 89.6458 175.235 88.277 178.679C86.9081 182.123 86.5505 185.913 87.2483 189.569C87.9461 193.225 89.6684 196.583 92.1977 199.219C94.7269 201.854 97.9496 203.65 101.458 204.377C104.966 205.104 108.602 204.731 111.907 203.304C115.211 201.878 118.036 199.462 120.023 196.363C122.01 193.263 123.071 189.619 123.071 185.892C123.075 183.413 122.611 180.958 121.704 178.666C120.798 176.375 119.467 174.292 117.787 172.537C116.107 170.782 114.112 169.39 111.916 168.439C109.719 167.488 107.364 166.998 104.986 166.997V167.045Z" fill="white"/>
<path d="M129.529 156.775C125.337 156.775 121.24 155.48 117.755 153.053C114.269 150.626 111.553 147.177 109.949 143.141C108.345 139.105 107.925 134.665 108.743 130.38C109.561 126.096 111.579 122.161 114.543 119.072C117.507 115.983 121.283 113.879 125.394 113.027C129.505 112.175 133.767 112.612 137.639 114.284C141.512 115.956 144.822 118.787 147.151 122.419C149.479 126.051 150.722 130.321 150.722 134.689C150.719 140.546 148.485 146.162 144.511 150.303C140.538 154.444 135.149 156.772 129.529 156.775ZM129.529 115.854C125.952 115.854 122.455 116.96 119.48 119.031C116.506 121.103 114.188 124.047 112.819 127.492C111.451 130.936 111.093 134.726 111.792 138.382C112.491 142.039 114.215 145.397 116.745 148.032C119.276 150.668 122.499 152.462 126.008 153.188C129.516 153.914 133.153 153.539 136.458 152.11C139.762 150.682 142.586 148.264 144.572 145.163C146.557 142.062 147.617 138.417 147.614 134.689C147.611 129.693 145.704 124.902 142.313 121.37C138.922 117.838 134.324 115.854 129.529 115.854Z" fill="white"/>
<path d="M183.52 136.309C179.328 136.309 175.23 135.013 171.745 132.586C168.259 130.158 165.543 126.708 163.939 122.672C162.335 118.635 161.916 114.194 162.735 109.909C163.553 105.625 165.573 101.689 168.538 98.601C171.504 95.5126 175.281 93.41 179.393 92.5592C183.505 91.7083 187.766 92.1475 191.639 93.821C195.511 95.4945 198.82 98.3272 201.147 101.961C203.475 105.595 204.716 109.866 204.714 114.235C204.708 120.089 202.472 125.702 198.499 129.841C194.525 133.979 189.138 136.306 183.52 136.309ZM183.52 95.3875C179.943 95.3875 176.447 96.4928 173.473 98.5638C170.499 100.635 168.181 103.578 166.812 107.022C165.443 110.466 165.085 114.255 165.782 117.911C166.48 121.567 168.203 124.926 170.732 127.561C173.261 130.197 176.484 131.992 179.992 132.719C183.5 133.447 187.136 133.074 190.441 131.647C193.746 130.221 196.57 127.805 198.558 124.705C200.545 121.606 201.605 117.962 201.605 114.235C201.602 109.237 199.696 104.445 196.305 100.911C192.914 97.3773 188.316 95.3907 183.52 95.3875Z" fill="white"/>
<path d="M129.529 259.073C125.337 259.073 121.239 257.777 117.754 255.35C114.268 252.922 111.552 249.472 109.948 245.436C108.344 241.399 107.925 236.958 108.744 232.673C109.562 228.389 111.582 224.453 114.547 221.365C117.512 218.277 121.29 216.174 125.402 215.323C129.514 214.472 133.775 214.911 137.648 216.585C141.52 218.258 144.829 221.091 147.156 224.725C149.484 228.358 150.725 232.63 150.722 236.998C150.716 242.853 148.481 248.466 144.508 252.605C140.534 256.743 135.147 259.07 129.529 259.073ZM129.529 218.151C125.952 218.151 122.456 219.257 119.482 221.328C116.508 223.399 114.19 226.342 112.821 229.786C111.452 233.23 111.094 237.019 111.792 240.675C112.489 244.331 114.212 247.69 116.741 250.325C119.27 252.961 122.493 254.756 126.001 255.483C129.509 256.211 133.145 255.837 136.45 254.411C139.755 252.984 142.58 250.569 144.567 247.469C146.554 244.37 147.615 240.726 147.615 236.998C147.611 232.001 145.705 227.209 142.314 223.675C138.923 220.141 134.325 218.155 129.529 218.151Z" fill="white"/>
<path d="M183.52 279.539C179.328 279.539 175.231 278.244 171.746 275.817C168.26 273.39 165.544 269.941 163.94 265.905C162.336 261.869 161.916 257.428 162.734 253.144C163.552 248.86 165.57 244.924 168.534 241.836C171.498 238.747 175.274 236.643 179.385 235.791C183.496 234.939 187.758 235.376 191.631 237.048C195.503 238.719 198.813 241.55 201.142 245.182C203.47 248.814 204.714 253.085 204.714 257.453C204.711 263.309 202.476 268.925 198.502 273.067C194.529 277.208 189.14 279.536 183.52 279.539ZM183.52 238.618C179.943 238.618 176.446 239.723 173.471 241.795C170.497 243.866 168.179 246.811 166.81 250.255C165.442 253.7 165.085 257.49 165.783 261.146C166.482 264.802 168.206 268.161 170.736 270.796C173.267 273.431 176.49 275.225 179.999 275.951C183.508 276.677 187.145 276.302 190.449 274.874C193.754 273.445 196.577 271.028 198.563 267.927C200.549 264.826 201.608 261.181 201.605 257.453C201.602 252.456 199.695 247.666 196.304 244.134C192.913 240.602 188.315 238.618 183.52 238.618Z" fill="white"/>
<path d="M247.331 279.539C241.197 279.539 235.201 277.644 230.101 274.092C225.001 270.541 221.026 265.493 218.678 259.588C216.331 253.682 215.717 247.184 216.914 240.914C218.111 234.645 221.064 228.886 225.401 224.366C229.738 219.846 235.265 216.768 241.281 215.521C247.297 214.274 253.532 214.914 259.199 217.36C264.866 219.806 269.709 223.949 273.117 229.264C276.525 234.579 278.344 240.827 278.344 247.22C278.326 255.785 275.052 263.995 269.24 270.052C263.428 276.109 255.551 279.52 247.331 279.539ZM247.331 218.151C241.812 218.151 236.416 219.857 231.827 223.053C227.237 226.249 223.661 230.791 221.549 236.106C219.437 241.42 218.885 247.268 219.963 252.909C221.04 258.551 223.7 263.732 227.603 267.799C231.507 271.865 236.48 274.634 241.894 275.755C247.308 276.875 252.919 276.298 258.018 274.095C263.117 271.892 267.474 268.163 270.539 263.379C273.604 258.595 275.238 252.972 275.236 247.22C275.227 239.511 272.284 232.121 267.052 226.671C261.82 221.222 254.728 218.157 247.331 218.151Z" fill="white"/>
<path d="M301.322 136.309C297.13 136.309 293.032 135.013 289.547 132.586C286.061 130.158 283.344 126.708 281.741 122.672C280.137 118.635 279.718 114.194 280.537 109.909C281.355 105.625 283.375 101.689 286.34 98.601C289.305 95.5126 293.083 93.41 297.195 92.5592C301.306 91.7083 305.568 92.1475 309.441 93.821C313.313 95.4945 316.622 98.3272 318.949 101.961C321.277 105.595 322.517 109.866 322.515 114.235C322.506 120.088 320.27 125.699 316.297 129.837C312.324 133.975 306.939 136.303 301.322 136.309ZM301.322 95.3875C297.745 95.3875 294.249 96.4928 291.274 98.5638C288.3 100.635 285.982 103.578 284.613 107.022C283.245 110.466 282.886 114.255 283.584 117.911C284.282 121.567 286.004 124.926 288.534 127.561C291.063 130.197 294.286 131.992 297.794 132.719C301.302 133.447 304.938 133.074 308.243 131.647C311.547 130.221 314.372 127.805 316.36 124.705C318.347 121.606 319.407 117.962 319.407 114.235C319.404 109.237 317.498 104.445 314.107 100.911C310.716 97.3773 306.118 95.3907 301.322 95.3875Z" fill="white"/>
<path d="M217.791 162.738L196.114 134.509L337.549 2.36359C339.194 0.791673 341.359 -0.0545944 343.59 0.00273355C345.821 0.0600615 347.944 1.0165 349.512 2.67098C351.08 4.32547 351.972 6.54914 351.999 8.87452C352.027 11.1999 351.188 13.4459 349.66 15.1403L217.791 162.738ZM200.385 134.869L217.975 157.783L347.38 12.9328C348.101 12.1164 348.579 11.0991 348.755 10.0049C348.932 8.91062 348.799 7.78663 348.373 6.76965C347.947 5.75266 347.247 4.88658 346.357 4.27684C345.468 3.6671 344.428 3.33998 343.363 3.33534C341.985 3.32545 340.653 3.84678 339.622 4.79899L200.385 134.869Z" fill="white"/>
<path d="M217.791 162.738L196.114 134.509L219.011 113.119L241.344 136.381L217.791 162.738ZM200.385 134.869L217.975 157.783L237.016 136.465L218.896 117.582L200.385 134.869Z" fill="white"/>
<path d="M169.902 197.697C163.241 197.69 156.678 196.029 150.756 192.852C144.834 189.674 139.724 185.072 135.849 179.426L121.621 158.647H154.602C163.433 158.644 171.985 155.423 178.777 149.541L198.52 132.386L219.944 160.303L201.721 182.461C197.791 187.248 192.91 191.09 187.417 193.721C181.923 196.351 175.947 197.708 169.902 197.697ZM127.641 161.886L138.37 177.542C141.785 182.528 146.244 186.639 151.409 189.564C156.575 192.488 162.311 194.149 168.184 194.421C174.056 194.692 179.911 193.568 185.305 191.132C190.699 188.696 195.489 185.013 199.315 180.361L215.869 160.231L198.025 136.993L180.757 152.025C173.413 158.389 164.165 161.877 154.614 161.886H127.641Z" fill="white"/>
<path d="M104.986 200.84C112.933 200.84 119.375 194.126 119.375 185.844C119.375 177.561 112.933 170.847 104.986 170.847C97.0383 170.847 90.5957 177.561 90.5957 185.844C90.5957 194.126 97.0383 200.84 104.986 200.84Z" fill="#007DA1"/>
<path d="M183.52 129.387C191.468 129.387 197.91 122.673 197.91 114.391C197.91 106.109 191.468 99.3945 183.52 99.3945C175.573 99.3945 169.13 106.109 169.13 114.391C169.13 122.673 175.573 129.387 183.52 129.387Z" fill="#007DA1"/>
<path d="M183.52 272.797C191.652 272.797 198.244 265.927 198.244 257.453C198.244 248.979 191.652 242.109 183.52 242.109C175.388 242.109 168.796 248.979 168.796 257.453C168.796 265.927 175.388 272.797 183.52 272.797Z" fill="#007DA1"/>
<path d="M75.5277 277.752C50.5595 252.578 36.5356 218.457 36.5356 182.881C36.5356 147.306 50.5595 113.184 75.5277 88.0107" stroke="white" stroke-width="3" stroke-miterlimit="10" stroke-linecap="round"/>
<path d="M40.992 277.752C16.0239 252.578 2 218.457 2 182.881C2 147.306 16.0239 113.184 40.992 88.0107" stroke="white" stroke-width="3" stroke-miterlimit="10" stroke-linecap="round"/>
</svg>
