<svg width="200" height="50" viewBox="0 0 200 50" fill="none" xmlns="http://www.w3.org/2000/svg">
<path d="M21.0099 0.00066323H22.3065C22.5458 -0.000884671 22.7822 0.053888 22.9972 0.160704C23.2123 0.267519 23.4002 0.423486 23.5462 0.616421C23.6922 0.809355 23.7924 1.03403 23.839 1.27291C23.8856 1.51178 23.8773 1.75839 23.8148 1.99346L16.3704 29.8836C16.3078 30.1174 16.2992 30.3629 16.3453 30.6007C16.3915 30.8385 16.491 31.0622 16.6362 31.2543C16.7815 31.4464 16.9684 31.6018 17.1824 31.7081C17.3964 31.8145 17.6317 31.869 17.8699 31.8674H28.2249C28.5638 31.8677 28.8934 31.7545 29.1628 31.5452C29.4322 31.3359 29.6264 31.0422 29.7155 30.7094L33.9845 14.6773C34.0737 14.3421 34.2689 14.0462 34.54 13.8352C34.811 13.6243 35.1428 13.5101 35.484 13.5104H36.7806C37.0191 13.5102 37.2545 13.566 37.4684 13.6734C37.6824 13.7808 37.8691 13.9369 38.0141 14.1297C38.1592 14.3224 38.2586 14.5466 38.3047 14.7848C38.3508 15.023 38.3424 15.2688 38.28 15.5032L29.3715 48.8061C29.2824 49.1413 29.0871 49.4372 28.8161 49.6482C28.5451 49.8591 28.2133 49.9733 27.8721 49.9731H26.5755C26.3381 49.9733 26.1038 49.9178 25.8909 49.8108C25.678 49.7038 25.4922 49.5484 25.348 49.3564C25.2038 49.1645 25.105 48.9413 25.0594 48.7042C25.0137 48.467 25.0225 48.2224 25.0849 47.9893L27.6163 38.4472C27.6787 38.2141 27.6874 37.9694 27.6418 37.7323C27.5962 37.4952 27.4974 37.272 27.3532 37.08C27.2089 36.8881 27.0231 36.7326 26.8103 36.6256C26.5974 36.5187 26.3631 36.4632 26.1257 36.4634H12.1367C11.8983 36.464 11.663 36.4084 11.4493 36.3009C11.2355 36.1934 11.0491 36.0371 10.9047 35.844C10.7603 35.651 10.6618 35.4265 10.617 35.1882C10.5721 34.9499 10.582 34.7043 10.6461 34.4706L19.4664 1.16761C19.5574 0.824885 19.7592 0.523351 20.0392 0.311639C20.3193 0.0999273 20.6612 -0.0096199 21.0099 0.00066323Z" fill="#007DA1"/>
<path d="M0 33.4472V34.8835C0 35.3025 0.163538 35.7043 0.454638 36.0006C0.745738 36.2969 1.14055 36.4634 1.55223 36.4634H5.29171C5.63288 36.4636 5.96463 36.3494 6.23565 36.1385C6.50666 35.9275 6.70185 35.6316 6.79102 35.2964L7.17026 33.8602C7.23241 33.6266 7.241 33.3815 7.19537 33.144C7.14973 32.9065 7.0511 32.6828 6.90707 32.4903C6.76304 32.2977 6.57746 32.1414 6.36467 32.0334C6.15187 31.9254 5.91754 31.8686 5.67976 31.8674H1.55223C1.14055 31.8674 0.745738 32.0338 0.454638 32.3301C0.163538 32.6264 0 33.0282 0 33.4472Z" fill="#A7D9DB"/>
<path d="M10.5843 13.5103H1.55237C1.14065 13.5103 0.745804 13.6768 0.454678 13.9731C0.163552 14.2694 0 14.6712 0 15.0902V16.5265C0 16.9455 0.163552 17.3473 0.454678 17.6436C0.745804 17.9399 1.14065 18.1063 1.55237 18.1063H10.2227C10.5628 18.1061 10.8933 17.9916 11.1628 17.7806C11.4324 17.5695 11.6259 17.2738 11.7133 16.9394L12.0926 15.5031C12.1571 15.268 12.1668 15.0207 12.121 14.7811C12.0751 14.5414 11.975 14.3159 11.8287 14.1225C11.6823 13.9291 11.4936 13.773 11.2776 13.6668C11.0616 13.5605 10.8242 13.5069 10.5843 13.5103Z" fill="#A7D9DB"/>
<path d="M37.1686 33.0343L36.7894 34.4706C36.7253 34.7043 36.7154 34.9499 36.7603 35.1882C36.8051 35.4265 36.9036 35.6509 37.048 35.844C37.1924 36.037 37.3788 36.1934 37.5926 36.3009C37.8063 36.4083 38.0416 36.464 38.28 36.4634H47.5501C47.7536 36.4645 47.9552 36.4248 48.1435 36.3464C48.3318 36.268 48.503 36.1524 48.6473 36.0064C48.7916 35.8605 48.906 35.6869 48.9842 35.4957C49.0623 35.3045 49.1025 35.0995 49.1025 34.8925V33.4472C49.1025 33.0282 48.9389 32.6264 48.6478 32.3301C48.3567 32.0338 47.9618 31.8674 47.5501 31.8674H38.6593C38.3196 31.8691 37.9898 31.9842 37.7206 32.195C37.4513 32.4058 37.2574 32.7006 37.1686 33.0343Z" fill="#A7D9DB"/>
<path d="M42.055 14.6773L41.6758 16.1584C41.6136 16.392 41.605 16.6371 41.6507 16.8746C41.6963 17.1121 41.7949 17.3358 41.939 17.5283C42.083 17.7209 42.2686 17.8772 42.4814 17.9852C42.6942 18.0932 42.9285 18.15 43.1663 18.1512H47.576C47.9877 18.1512 48.3825 17.9848 48.6736 17.6885C48.9647 17.3922 49.1283 16.9904 49.1283 16.5714V15.1351C49.1283 14.7161 48.9647 14.3143 48.6736 14.018C48.3825 13.7217 47.9877 13.5552 47.576 13.5552H43.5543C43.2189 13.5522 42.8914 13.6599 42.6211 13.8622C42.3509 14.0645 42.1522 14.3505 42.055 14.6773Z" fill="#A7D9DB"/>
<path d="M28.6303 13.5104H25.517C25.1766 13.5091 24.8454 13.623 24.5755 13.8343C24.3057 14.0455 24.1126 14.3421 24.0265 14.6773L23.6384 16.1585C23.5761 16.3928 23.5676 16.6386 23.6138 16.8768C23.6599 17.115 23.7593 17.3392 23.9043 17.5319C24.0493 17.7247 24.236 17.8808 24.4499 17.9882C24.6639 18.0956 24.8992 18.1514 25.1377 18.1513H28.2246C28.565 18.1526 28.8962 18.0386 29.166 17.8274C29.4358 17.6161 29.629 17.3195 29.7151 16.9843L30.1031 15.5481C30.173 15.3131 30.1882 15.0647 30.1473 14.8227C30.1065 14.5807 30.0108 14.3518 29.8678 14.154C29.7249 13.9562 29.5386 13.7951 29.3238 13.6833C29.1089 13.5716 28.8715 13.5124 28.6303 13.5104Z" fill="#A7D9DB"/>
<path d="M8.8194 41.2927L7.0555 48.0162C6.99309 48.2493 6.98437 48.4939 7.03 48.7311C7.07564 48.9682 7.17441 49.1914 7.31861 49.3833C7.46282 49.5753 7.64859 49.7308 7.86147 49.8377C8.07434 49.9447 8.30859 50.0002 8.54599 50H9.84246C10.1836 50.0002 10.5154 49.886 10.7864 49.6751C11.0574 49.4642 11.2526 49.1682 11.3418 48.833L13.1057 42.1186C13.1683 41.8847 13.1769 41.6393 13.1308 41.4015C13.0846 41.1637 12.9851 40.94 12.8399 40.7478C12.6947 40.5557 12.5078 40.4004 12.2938 40.294C12.0798 40.1877 11.8445 40.1332 11.6064 40.1348H10.3275C9.98637 40.1335 9.65419 40.2461 9.38183 40.4552C9.10947 40.6643 8.91192 40.9585 8.8194 41.2927Z" fill="#A7D9DB"/>
<path d="M40.0525 8.71689L41.8164 1.99347C41.8782 1.76131 41.8871 1.51786 41.8424 1.28167C41.7977 1.04549 41.7007 0.822802 41.5586 0.630592C41.4165 0.438381 41.2332 0.281722 41.0227 0.172557C40.8121 0.0633918 40.5798 0.00460203 40.3435 0.00067174H39.0471C38.7059 0.000439561 38.3741 0.114622 38.1031 0.32556C37.8321 0.536499 37.6369 0.83244 37.5477 1.16762L35.7838 7.89105C35.7236 8.12262 35.7159 8.36509 35.7614 8.60013C35.8068 8.83517 35.9041 9.05662 36.046 9.24773C36.1879 9.43884 36.3706 9.59461 36.5804 9.70326C36.7901 9.81191 37.0214 9.87059 37.2567 9.87487H38.5532C38.8928 9.87415 39.223 9.7607 39.4936 9.55172C39.7641 9.34274 39.9604 9.04965 40.0525 8.71689Z" fill="#A7D9DB"/>
<path d="M84.2073 24.7131C84.2034 20.6808 85.6713 16.7907 88.3264 13.7976C89.7023 12.2434 91.3776 10.9938 93.2481 10.1262C95.3048 9.1764 97.5433 8.7042 99.8015 8.74384C102.448 8.67446 105.063 9.34509 107.361 10.6828C109.379 11.8642 111.013 13.621 112.062 15.7366L107.378 19.031C106.919 17.9163 106.201 16.9309 105.288 16.1585C104.461 15.4865 103.515 14.9835 102.501 14.6773C101.569 14.3826 100.6 14.2284 99.6251 14.2195C98.2243 14.1872 96.8381 14.5145 95.5943 15.171C94.4757 15.7751 93.5003 16.6206 92.7365 17.6486C91.9768 18.683 91.3979 19.843 91.0254 21.0776C90.6409 22.3177 90.4446 23.6102 90.4432 24.9106C90.4391 26.2861 90.6658 27.6522 91.1136 28.95C91.5317 30.2163 92.1744 31.3937 93.0099 32.424C93.8112 33.4255 94.8123 34.2424 95.9471 34.8207C97.1155 35.4176 98.406 35.7252 99.7134 35.7183C100.715 35.7083 101.709 35.5387 102.659 35.2157C103.686 34.8791 104.639 34.3425 105.464 33.6358C106.38 32.871 107.113 31.904 107.608 30.8082L112.591 33.7884C111.927 35.3939 110.859 36.7932 109.495 37.8458C108.069 38.9772 106.456 39.8405 104.732 40.3951C103.058 40.9713 101.304 41.2742 99.537 41.2928C97.397 41.32 95.2812 40.8309 93.3628 39.8655C91.5238 38.9364 89.8817 37.6494 88.5292 36.0774C87.1649 34.5101 86.0866 32.7075 85.3451 30.7543C84.5909 28.8328 84.2047 26.7822 84.2073 24.7131Z" fill="black"/>
<path d="M135.833 17.3613C135.479 17.0487 135.098 16.7693 134.695 16.5265C134.05 16.131 133.381 15.7772 132.692 15.4673C131.864 15.0931 131.005 14.7927 130.126 14.5696C129.21 14.3266 128.267 14.2029 127.321 14.2016C126.005 14.1049 124.692 14.418 123.555 15.0992C123.135 15.4003 122.797 15.8059 122.575 16.2773C122.353 16.7488 122.253 17.2703 122.285 17.7922C122.266 18.1746 122.329 18.5566 122.467 18.9126C122.605 19.2686 122.817 19.5905 123.087 19.8568C123.786 20.4609 124.604 20.9048 125.486 21.1584C126.562 21.5264 127.894 21.9124 129.5 22.3254C131.349 22.7762 133.149 23.4169 134.871 24.2374C136.277 24.8596 137.494 25.8509 138.399 27.1098C139.28 28.5224 139.709 30.1785 139.625 31.8495C139.666 33.3421 139.345 34.822 138.69 36.1582C138.084 37.333 137.206 38.3403 136.132 39.0935C134.996 39.8805 133.724 40.4437 132.384 40.7542C130.916 41.1096 129.412 41.2844 127.903 41.2748C126.318 41.2705 124.737 41.1051 123.184 40.7811C121.634 40.4579 120.118 39.9798 118.659 39.3539C117.251 38.7417 115.912 37.9773 114.664 37.0738L117.38 31.6879C117.819 32.0915 118.298 32.4465 118.809 32.7471C119.59 33.2676 120.41 33.7238 121.261 34.1116C122.296 34.5707 123.367 34.9401 124.463 35.2157C125.615 35.5197 126.801 35.6735 127.991 35.6735C129.306 35.7641 130.62 35.4781 131.784 34.8476C132.186 34.5927 132.514 34.2324 132.733 33.8045C132.952 33.3765 133.053 32.8967 133.028 32.415C133.047 31.9835 132.968 31.5533 132.794 31.1589C132.621 30.7646 132.36 30.4169 132.031 30.1439C131.18 29.4954 130.221 29.0089 129.2 28.7077C127.982 28.3037 126.554 27.8729 124.878 27.424C123.141 26.9681 121.458 26.321 119.859 25.4941C118.651 24.8765 117.624 23.9481 116.878 22.8011C116.167 21.5881 115.817 20.1909 115.872 18.7796C115.806 16.8233 116.353 14.8963 117.433 13.277C118.486 11.7664 119.935 10.5875 121.614 9.87489C123.463 9.09086 125.45 8.69986 127.453 8.72589C128.87 8.72116 130.282 8.88688 131.661 9.2196C132.939 9.53693 134.185 9.97571 135.383 10.5302C136.469 11.0429 137.513 11.6433 138.505 12.3255L135.833 17.3613Z" fill="black"/>
<path d="M167.003 35.6914V41.2299H144.714V8.74384H166.589V14.2824H150.95V22.1009H164.419V27.2265H150.95V35.6914H167.003Z" fill="black"/>
<path d="M184.6 41.2299C182.43 41.2635 180.281 40.8003 178.311 39.8745C176.467 38.9927 174.817 37.7408 173.46 36.1941C172.098 34.6622 171.024 32.8882 170.293 30.9607C169.556 29.0567 169.176 27.0289 169.173 24.9824C169.166 22.8794 169.568 20.7958 170.355 18.8514C171.133 16.9411 172.234 15.1849 173.61 13.663C175.004 12.1458 176.679 10.9253 178.54 10.0723C180.48 9.18156 182.586 8.72836 184.715 8.74381C186.88 8.71541 189.023 9.19455 190.977 10.1441C192.822 11.0432 194.467 12.3171 195.81 13.8874C197.139 15.4314 198.187 17.2034 198.906 19.1207C199.632 21.021 200.003 23.0424 200 25.0811C200.005 27.1563 199.619 29.2132 198.862 31.1403C198.119 33.0589 197.033 34.821 195.66 36.3377C194.279 37.8573 192.611 39.0784 190.756 39.9283C188.819 40.806 186.72 41.2498 184.6 41.2299ZM175.418 24.9824C175.411 26.3485 175.623 27.7067 176.044 29.0039C176.425 30.2508 177.023 31.4182 177.808 32.4509C178.592 33.4554 179.583 34.2734 180.71 34.8476C181.922 35.4556 183.258 35.7632 184.609 35.7452C185.984 35.7826 187.347 35.4743 188.578 34.8476C189.713 34.2222 190.705 33.3595 191.488 32.3162C192.282 31.2791 192.881 30.1012 193.253 28.8423C193.636 27.5834 193.832 26.2733 193.835 24.9554C193.838 23.6013 193.627 22.2554 193.208 20.9699C192.815 19.7331 192.202 18.58 191.4 17.5677C190.608 16.5719 189.619 15.7555 188.498 15.171C187.296 14.562 185.969 14.2542 184.626 14.2734C183.274 14.2431 181.935 14.5513 180.728 15.171C179.604 15.771 178.616 16.6026 177.826 17.6126C177.039 18.6379 176.442 19.7996 176.062 21.0417C175.647 22.313 175.429 23.6427 175.418 24.9824Z" fill="black"/>
<path d="M69.9008 8.74384L54.9592 41.2299H61.1422L62.8975 37.3431L66.6814 28.8872H66.6726L69.8038 21.9483L72.7938 28.8872H69.4686L67.1048 34.3988H75.1489L78.0684 41.2299H84.3131L69.9008 8.74384Z" fill="black"/>
</svg>
