<svg width="100" height="100" viewBox="0 0 100 100" fill="none" xmlns="http://www.w3.org/2000/svg">
<path d="M97.1025 38.1254L93.8768 31.2508L88.2803 25.9477L85.0921 31.9745C86.5007 32.1689 87.5706 33.411 88.2372 34.9123C88.717 35.5053 88.9484 36.2625 88.8824 37.0237C89.0382 37.8063 89.0601 38.6099 88.947 39.3999C88.3664 42.7859 85.5169 45.7723 82.1085 44.514C81.2801 44.5526 80.4516 44.441 79.6625 44.1846C79.3719 44.0919 79.0977 43.9534 78.8506 43.7741L72.883 55.0446C73.5658 57.0792 73.6407 59.27 73.0983 61.3468C72.1349 62.6488 70.9276 63.7494 69.5445 64.587C69.0691 65.0038 68.4551 65.2255 67.8243 65.208C67.7187 65.2135 67.6126 65.2135 67.5069 65.208L63.62 72.5524C67.4693 72.25 71.808 74.5668 73.2219 78.2552C74.6358 81.9436 73.7164 86.7283 71.1681 89.6499C67.7166 93.6137 57.2764 93.7433 55.3357 88.2134L49.3789 99.4676H61.8568L68.2275 98.0365L74.9476 93.9755L79.4958 88.4402L81.888 82.4134L82.4849 76.041V63.6527L91.0381 57.788L95.8015 51.718L97.6401 45.4698L97.1025 38.1254Z" fill="#A7D9DB"/>
<path d="M21.3694 53.4089C21.3694 53.4089 32.713 63.1295 39.3901 58.7012C46.0672 54.2729 98.8119 4.64404 98.8119 4.64404L47.6101 60.4455C47.6101 60.4455 43.2392 67.4659 32.6644 64.6253C26.3421 61.0827 21.3694 53.4089 21.3694 53.4089Z" fill="#A7D9DB"/>
<path d="M60.416 99.9973H39.1967C34.0712 100.058 28.9846 99.0963 24.2318 97.168C19.479 95.2397 15.1545 92.3831 11.5087 88.7638C7.86293 85.1444 4.96832 80.8343 2.99282 76.0832C1.01731 71.332 0 66.2343 0 61.0854C0 55.9364 1.01731 50.8387 2.99282 46.0876C4.96832 41.3364 7.86293 37.0262 11.5087 33.4069C15.1545 29.7876 19.479 26.931 24.2318 25.0027C28.9846 23.0744 34.0712 22.1127 39.1967 22.1734H71.4532V23.2534H39.1967C34.2129 23.1936 29.2669 24.128 24.6452 26.0024C20.0236 27.8768 15.8184 30.654 12.2731 34.1729C8.72787 37.6919 5.91298 41.8826 3.99191 46.5023C2.07083 51.122 1.08178 56.0788 1.08178 61.0854C1.08178 66.0919 2.07083 71.0487 3.99191 75.6684C5.91298 80.2881 8.72787 84.4789 12.2731 87.9978C15.8184 91.5168 20.0236 94.2939 24.6452 96.1683C29.2669 98.0427 34.2129 98.9771 39.1967 98.9173H60.416C66.1252 98.9101 71.5984 96.6284 75.6349 92.5727C79.6714 88.517 81.9417 83.0185 81.9474 77.2836V63.3562L89.0975 58.5661C91.6007 56.8935 93.653 54.6246 95.0713 51.9617C96.4896 49.2989 97.23 46.3248 97.2262 43.3048C97.2258 38.7297 95.6682 34.2922 92.8119 30.7286C89.9556 27.1649 85.9722 24.6894 81.5226 23.7125L81.7537 22.6324C86.4427 23.6612 90.6407 26.2697 93.6506 30.025C96.6606 33.7803 98.3016 38.4566 98.3014 43.2778C98.3059 46.4756 97.5226 49.6248 96.0218 52.4449C94.521 55.265 92.3493 57.6684 89.6997 59.4409L83.0278 63.907V77.2566C83.0293 83.2836 80.6484 89.0645 76.4083 93.3288C72.1682 97.593 66.4159 99.9916 60.416 99.9973ZM43.0943 74.416H40.8901C34.3044 74.416 29.3315 69.6637 29.3315 63.3616H30.4067C30.4067 69.0481 34.9172 73.3359 40.8901 73.3359H43.0943C44.7104 73.3377 46.3061 72.9735 47.7627 72.2705C49.2194 71.5674 50.4994 70.5435 51.5079 69.275C52.6146 67.8775 54.0219 66.7497 55.6242 65.9762C57.2265 65.2028 58.9824 64.8037 60.7601 64.8089H67.2114C68.8697 64.8089 70.46 64.1472 71.6325 62.9693C72.8051 61.7915 73.4638 60.194 73.4638 58.5283C73.4638 56.8626 72.8051 55.2651 71.6325 54.0873C70.46 52.9095 68.8697 52.2478 67.2114 52.2478H55.2121V51.1677H67.2007C69.1441 51.1677 71.0078 51.9431 72.382 53.3235C73.7562 54.7039 74.5282 56.5762 74.5282 58.5283C74.5282 60.4805 73.7562 62.3527 72.382 63.733C71.0078 65.1134 69.1441 65.889 67.2007 65.889H60.7493C59.1329 65.8849 57.5364 66.248 56.0794 66.9513C54.6224 67.6545 53.3427 68.6797 52.3358 69.95C51.2278 71.3434 49.8217 72.4684 48.2218 73.2415C46.622 74.0146 44.8697 74.416 43.0943 74.416Z" fill="black"/>
<path d="M14.5796 69.3016C13.129 69.3027 11.7106 68.8716 10.504 68.0629C9.29734 67.2541 8.35679 66.1041 7.80094 64.7582C7.2451 63.4123 7.09912 61.931 7.38146 60.5018C7.6638 59.0726 8.36167 57.7596 9.387 56.7289C10.4123 55.6982 11.719 54.9961 13.1416 54.7114C14.5642 54.4268 16.039 54.5724 17.3792 55.1297C18.7195 55.6871 19.865 56.6312 20.671 57.8427C21.477 59.0541 21.9072 60.4785 21.9072 61.9356C21.9043 63.8873 21.1315 65.7585 19.758 67.1391C18.3846 68.5197 16.5226 69.2973 14.5796 69.3016ZM14.5796 55.655C13.3415 55.6539 12.1308 56.0218 11.1009 56.7121C10.071 57.4024 9.26804 58.3841 8.79374 59.533C8.31943 60.6818 8.19518 61.9461 8.43647 63.166C8.67775 64.3858 9.27382 65.5064 10.1493 66.3858C11.0248 67.2652 12.1404 67.8641 13.3548 68.1064C14.5691 68.3488 15.8276 68.2239 16.9713 67.7474C18.115 67.271 19.0924 66.4644 19.7796 65.4299C20.4668 64.3953 20.833 63.1793 20.8319 61.9356C20.8291 60.2707 20.1695 58.6749 18.9976 57.4977C17.8256 56.3205 16.237 55.6578 14.5796 55.655Z" fill="black"/>
<path d="M23.0627 52.2477C21.6124 52.2477 20.1948 51.8156 18.9889 51.0063C17.783 50.1969 16.843 49.0465 16.288 47.7005C15.733 46.3546 15.5877 44.8735 15.8706 43.4446C16.1536 42.0158 16.8519 40.7033 17.8775 39.6731C18.903 38.643 20.2096 37.9414 21.6321 37.6572C23.0545 37.3729 24.529 37.5188 25.8689 38.0764C27.2088 38.6339 28.3542 39.578 29.1599 40.7893C29.9657 42.0006 30.3958 43.4248 30.3958 44.8817C30.3944 46.8348 29.6213 48.7075 28.2464 50.0886C26.8715 51.4697 25.0071 52.2463 23.0627 52.2477ZM23.0627 38.6011C21.8248 38.6011 20.6148 38.9699 19.5856 39.6609C18.5564 40.3518 17.7543 41.3338 17.2808 42.4828C16.8073 43.6317 16.6837 44.8959 16.9256 46.1154C17.1675 47.3349 17.7641 48.4549 18.6398 49.3338C19.5155 50.2127 20.631 50.8109 21.8452 51.0529C23.0595 51.2948 24.3179 51.1696 25.4612 50.693C26.6046 50.2164 27.5815 49.4099 28.2684 48.3754C28.9554 47.341 29.3216 46.1251 29.3206 44.8817C29.3177 43.2159 28.6574 41.6193 27.4843 40.4419C26.3112 39.2645 24.721 38.6025 23.0627 38.6011Z" fill="black"/>
<path d="M41.7393 45.4215C40.29 45.4215 38.8731 44.9898 37.6681 44.181C36.4631 43.3722 35.5239 42.2227 34.9693 40.8777C34.4147 39.5327 34.2697 38.0528 34.5525 36.6249C34.8352 35.1971 35.5329 33.8856 36.5577 32.8562C37.5825 31.8268 38.8883 31.1257 40.3097 30.8417C41.7311 30.5577 43.2044 30.7034 44.5434 31.2606C45.8823 31.8177 47.0269 32.7611 47.832 33.9716C48.6372 35.182 49.0669 36.6051 49.0669 38.0609C49.0654 40.0126 48.2929 41.884 46.919 43.2641C45.5452 44.6441 43.6823 45.4201 41.7393 45.4215ZM41.7393 31.7804C40.5027 31.7804 39.2938 32.1487 38.2656 32.8388C37.2374 33.5289 36.4361 34.5099 35.9629 35.6575C35.4897 36.8051 35.3657 38.0679 35.6069 39.2862C35.8482 40.5045 36.4438 41.6236 37.3182 42.5019C38.1926 43.3803 39.3066 43.9784 40.5194 44.2208C41.7323 44.4631 42.9896 44.3388 44.132 43.8634C45.2745 43.3881 46.2509 42.5831 46.9379 41.5502C47.625 40.5174 47.9916 39.3031 47.9916 38.0609C47.9888 36.3961 47.3292 34.8003 46.1573 33.6231C44.9853 32.4458 43.3967 31.7832 41.7393 31.7804Z" fill="black"/>
<path d="M23.0628 86.3505C21.6137 86.3494 20.1975 85.9168 18.9931 85.1074C17.7888 84.2979 16.8505 83.148 16.2967 81.8029C15.7429 80.4578 15.5986 78.978 15.8819 77.5505C16.1653 76.1231 16.8638 74.812 17.8888 73.7832C18.9138 72.7543 20.2192 72.0538 21.6405 71.7702C23.0618 71.4867 24.535 71.6328 25.8737 72.19C27.2123 72.7473 28.3563 73.6907 29.1613 74.9011C29.9662 76.1114 30.3958 77.5343 30.3958 78.9899C30.393 80.9421 29.6193 82.8134 28.2446 84.1934C26.8699 85.5733 25.0062 86.3491 23.0628 86.3505ZM23.0628 72.7093C21.8264 72.7104 20.6181 73.0796 19.5906 73.7704C18.5631 74.4612 17.7627 75.4424 17.2903 76.5901C16.8179 77.7378 16.6948 79.0005 16.9367 80.2185C17.1785 81.4364 17.7744 82.555 18.649 83.4328C19.5236 84.3106 20.6375 84.9082 21.8502 85.1501C23.0629 85.392 24.3199 85.2674 25.4621 84.7919C26.6042 84.3163 27.5804 83.5113 28.2672 82.4786C28.954 81.4459 29.3206 80.2318 29.3206 78.9899C29.322 78.1632 29.1611 77.3444 28.8473 76.5802C28.5335 75.816 28.0729 75.1214 27.4917 74.5361C26.9106 73.9508 26.2204 73.4863 25.4605 73.1692C24.7005 72.852 23.8857 72.6884 23.0628 72.6877V72.7093Z" fill="black"/>
<path d="M41.7395 93.1766C40.289 93.1777 38.8705 92.7466 37.6639 91.9379C36.4573 91.1291 35.5167 89.9791 34.9609 88.6332C34.405 87.2873 34.259 85.8061 34.5414 84.3769C34.8237 82.9477 35.5216 81.6346 36.5469 80.6039C37.5722 79.5732 38.8789 78.8712 40.3015 78.5865C41.7241 78.3019 43.1989 78.4474 44.5391 79.0048C45.8794 79.5621 47.0249 80.5062 47.8309 81.7177C48.6369 82.9291 49.0671 84.3535 49.0671 85.8106C49.0656 87.7628 48.2933 89.6347 46.9195 91.0157C45.5458 92.3966 43.683 93.1737 41.7395 93.1766ZM41.7395 79.53C40.5014 79.529 39.2907 79.8969 38.2608 80.5872C37.2309 81.2775 36.428 82.2591 35.9536 83.408C35.4793 84.5568 35.3551 85.8211 35.5964 87.041C35.8377 88.2608 36.4337 89.3814 37.3092 90.2609C38.1847 91.1403 39.3003 91.7391 40.5147 91.9814C41.7291 92.2238 42.9875 92.0989 44.1312 91.6224C45.2749 91.146 46.2523 90.3395 46.9395 89.3049C47.6267 88.2704 47.9929 87.0543 47.9918 85.8106C47.989 84.1458 47.3294 82.5499 46.1575 81.3727C44.9855 80.1955 43.3969 79.5329 41.7395 79.53Z" fill="black"/>
<path d="M63.8138 93.1767C61.6859 93.1831 59.6038 92.5551 57.8313 91.3722C56.0589 90.1894 54.6758 88.5048 53.857 86.5318C53.0383 84.5588 52.8208 82.3861 53.232 80.2889C53.6432 78.1916 54.6646 76.2641 56.1671 74.7504C57.6695 73.2366 59.5854 72.2048 61.672 71.7854C63.7586 71.366 65.9221 71.578 67.8887 72.3945C69.8553 73.2111 71.5364 74.5953 72.7193 76.3722C73.9022 78.149 74.5337 80.2385 74.5337 82.376C74.5337 85.2349 73.4052 87.9772 71.3957 90.0018C69.3863 92.0264 66.6599 93.1681 63.8138 93.1767ZM63.8138 72.7095C61.8985 72.7031 60.0244 73.2677 58.4288 74.3319C56.8332 75.3961 55.5877 76.912 54.8503 78.6876C54.113 80.4633 53.9167 82.4187 54.2865 84.3065C54.6562 86.1942 55.5752 87.9293 56.9273 89.292C58.2793 90.6547 60.0038 91.5837 61.8818 91.9614C63.7598 92.3391 65.707 92.1485 67.4771 91.4138C69.2472 90.679 70.7604 89.4331 71.8252 87.8339C72.8899 86.2347 73.4585 84.354 73.4585 82.4301C73.4642 79.8539 72.4516 77.3807 70.6431 75.554C68.8347 73.7273 66.3784 72.6965 63.8138 72.6879V72.7095Z" fill="black"/>
<path d="M82.4849 45.4215C81.0356 45.4215 79.6187 44.9898 78.4137 44.181C77.2087 43.3722 76.2695 42.2227 75.7149 40.8777C75.1603 39.5327 75.0153 38.0528 75.2981 36.6249C75.5808 35.1971 76.2785 33.8856 77.3033 32.8562C78.3281 31.8268 79.6339 31.1257 81.0553 30.8417C82.4767 30.5577 83.95 30.7034 85.289 31.2606C86.6279 31.8177 87.7722 32.7611 88.5774 33.9716C89.3825 35.182 89.8125 36.6051 89.8125 38.0609C89.8096 40.0122 89.0367 41.8827 87.6631 43.2625C86.2895 44.6422 84.4274 45.4187 82.4849 45.4215ZM82.4849 31.7804C81.2483 31.7804 80.0394 32.1487 79.0112 32.8388C77.983 33.5289 77.1815 34.5099 76.7082 35.6575C76.235 36.8051 76.1113 38.0679 76.3525 39.2862C76.5938 40.5045 77.1894 41.6236 78.0638 42.5019C78.9382 43.3803 80.0522 43.9784 81.2651 44.2208C82.4779 44.4631 83.7349 44.3388 84.8774 43.8634C86.0199 43.3881 86.9965 42.5831 87.6836 41.5502C88.3706 40.5174 88.7372 39.3031 88.7372 38.0609C88.7344 36.3961 88.0748 34.8003 86.9029 33.6231C85.7309 32.4458 84.1423 31.7832 82.4849 31.7804Z" fill="black"/>
<path d="M53.5937 54.2347L46.0942 44.822L95.0167 0.766165C95.4459 0.379907 95.9771 0.12657 96.5463 0.0365425C97.1156 -0.0534848 97.6984 0.0236675 98.225 0.258765C98.7516 0.493862 99.1995 0.876868 99.5145 1.36164C99.8294 1.84641 99.9979 2.41224 100 2.99109C99.9996 3.74618 99.7155 4.47329 99.2044 5.02702L53.5937 54.2347ZM47.5727 44.9462L53.6528 52.5822L98.4143 4.29259C98.6668 4.0211 98.8349 3.68138 98.8978 3.31523C98.9607 2.94908 98.9155 2.57247 98.7682 2.23167C98.6208 1.89087 98.3776 1.60079 98.0683 1.39704C97.759 1.19328 97.3971 1.08476 97.0272 1.08483C96.5503 1.07999 96.0885 1.2532 95.7315 1.57087L47.5727 44.9462Z" fill="black"/>
<path d="M53.5937 54.2345L46.0942 44.8218L54.0132 37.6934L61.7385 45.4483L53.5937 54.2345ZM47.5727 44.946L53.6528 52.5821L60.244 45.4752L53.9754 39.2055L47.5727 44.946Z" fill="black"/>
<path d="M37.0297 65.8889C34.726 65.8853 32.4563 65.3309 30.4081 64.2717C28.3598 63.2124 26.5922 61.6787 25.2509 59.7973L20.3208 52.8687H31.7182C34.7704 52.868 37.7261 51.7943 40.0727 49.8337L46.9004 44.1147L54.3086 53.4249L48.0184 60.8071C46.6607 62.4009 44.9756 63.6804 43.0786 64.5576C41.1817 65.4349 39.118 65.889 37.0297 65.8889ZM22.4122 53.9488L26.1216 59.1708C27.3032 60.8326 28.8459 62.2026 30.6325 63.1771C32.4191 64.1516 34.4029 64.7051 36.4339 64.7956C38.4648 64.8861 40.4897 64.5114 42.3552 63.6997C44.2207 62.888 45.8778 61.6606 47.2013 60.1105L52.927 53.3979L46.7713 45.6538L40.7878 50.6653C38.2461 52.7841 35.0479 53.9454 31.745 53.9488H22.4122Z" fill="black"/>
<path d="M14.574 66.9426C17.3234 66.9426 19.5522 64.7035 19.5522 61.9415C19.5522 59.1795 17.3234 56.9404 14.574 56.9404C11.8245 56.9404 9.5957 59.1795 9.5957 61.9415C9.5957 64.7035 11.8245 66.9426 14.574 66.9426Z" fill="#A7D9DB"/>
<path d="M41.7395 43.1217C44.4889 43.1217 46.7178 40.8826 46.7178 38.1206C46.7178 35.3586 44.4889 33.1195 41.7395 33.1195C38.9901 33.1195 36.7612 35.3586 36.7612 38.1206C36.7612 40.8826 38.9901 43.1217 41.7395 43.1217Z" fill="#A7D9DB"/>
<path d="M41.7396 90.9308C44.5514 90.9308 46.8308 88.6409 46.8308 85.8163C46.8308 82.9916 44.5514 80.7018 41.7396 80.7018C38.9278 80.7018 36.6484 82.9916 36.6484 85.8163C36.6484 88.6409 38.9278 90.9308 41.7396 90.9308Z" fill="#A7D9DB"/>
</svg>
