<svg width="90" height="100" viewBox="0 0 90 100" fill="none" xmlns="http://www.w3.org/2000/svg">
<path d="M0.596974 94.1092C2.88798 93.1273 5.16275 92.108 7.61509 91.6144C7.8118 91.5755 8.01174 91.554 8.21223 91.55V43.1676L6.62563 41.0216L8.21223 39.412V22.6945L5.38881 23.231L2.80198 24.9155L1.10798 27.4211L0.516357 29.7335V94.1467L0.596974 94.1092Z" fill="#A7D9DB"/>
<path d="M13.2512 94.0446V51.6926H21.06V90.9329L13.2512 94.0446Z" fill="#A7D9DB"/>
<path d="M72.3603 0.515076H65.4658V17.5761H72.3603V0.515076Z" fill="#A7D9DB"/>
<path d="M72.3603 26.1064H65.4658V43.1674H72.3603V26.1064Z" fill="#A7D9DB"/>
<path d="M54.7852 58.5171H47.8906V75.5781H54.7852V58.5171Z" fill="#A7D9DB"/>
<path d="M89.5159 58.5171H82.6213V75.5781H89.5159V58.5171Z" fill="#A7D9DB"/>
<path d="M13.687 93.8731L13.9882 94.5974L15.9296 96.0513V99.4635H27.9009V96.0513L21.0602 90.933L13.687 93.8731Z" fill="#A7D9DB"/>
<path d="M21.5977 52.2346H0V30.3719C0.00284593 28.1943 0.871072 26.1067 2.41456 24.5669C3.95805 23.0271 6.05085 22.1608 8.23367 22.158H11.2614V23.231H8.23367C6.33567 23.2324 4.51581 23.9852 3.17372 25.324C1.83164 26.6629 1.07701 28.4784 1.07559 30.3719V51.1616H20.5221V45.5283H21.5977V52.2346ZM21.5977 33.7841H20.5221V29.492C20.5231 28.2553 20.1585 27.0458 19.4735 26.0151C18.7885 24.9844 17.8139 24.1783 16.6716 23.6977L17.091 22.7105C18.4281 23.2726 19.5691 24.216 20.3708 25.4224C21.1726 26.6288 21.5993 28.0445 21.5977 29.492V33.7841Z" fill="black"/>
<path d="M1.07559 94.3451H0V51.1561H21.5978V90.9329H20.5222V52.2291H1.07559V94.3451Z" fill="black"/>
<path d="M14.2193 24.9371C13.17 24.9357 12.1639 24.5192 11.4219 23.779C10.6799 23.0388 10.2627 22.0352 10.2612 20.9884V19.0623L12.2887 17.0397H18.1774V20.9884C18.1774 22.0356 17.7604 23.04 17.0181 23.7806C16.2758 24.5211 15.2691 24.9371 14.2193 24.9371ZM11.3368 19.5076V20.9884C11.3383 21.5759 11.5196 22.149 11.8568 22.6308C12.1939 23.1125 12.6709 23.4799 13.2233 23.6836C13.7757 23.8874 14.3773 23.9177 14.9475 23.7707C15.5177 23.6236 16.0294 23.3061 16.4136 22.8608C16.8571 22.3371 17.1008 21.6739 17.1018 20.9884V18.1127H12.7349L11.3368 19.5076Z" fill="black"/>
<path d="M10.2773 20.5806V15.87C10.2788 14.8232 10.6963 13.8197 11.4383 13.0795C12.1803 12.3393 13.1861 11.9227 14.2354 11.9213H16.9515C17.735 11.9227 18.4858 12.2343 19.0394 12.7875C19.5929 13.3407 19.9038 14.0905 19.9038 14.8721C19.9006 15.6541 19.5897 16.4036 19.038 16.9592L17.8818 18.1127H12.7513L10.2773 20.5806ZM14.2354 12.9943C13.4714 12.9958 12.739 13.2992 12.1988 13.8382C11.6585 14.3772 11.3544 15.1078 11.3529 15.87V18.0161L12.3048 17.0665H17.4354L18.2797 16.2241C18.6266 15.8701 18.8198 15.3941 18.8175 14.899C18.8175 14.4019 18.6199 13.9251 18.2681 13.5731C17.9163 13.2211 17.439 13.0226 16.9407 13.0212L14.2354 12.9943Z" fill="black"/>
<path d="M28.4386 99.9998H15.9294V98.9268H27.363V96.3194L20.9793 91.5391L13.4502 94.5436L13.0522 93.551L21.1407 90.3212L28.4386 95.7829V99.9998Z" fill="black"/>
<path d="M16.349 47.1161C14.543 47.1116 12.7626 46.6897 11.1475 45.8836C9.53236 45.0775 8.12631 43.9091 7.03973 42.47L5.72754 40.7263L14.5849 33.6605L16.0909 35.6617L29.1699 29.1378L30.5199 25.1032C30.6326 24.7626 30.8441 24.4632 31.1278 24.2429C31.4115 24.0227 31.7545 23.8915 32.1131 23.8662C32.4717 23.8409 32.8297 23.9226 33.1417 24.1008C33.4536 24.279 33.7053 24.5458 33.8649 24.8671L34.9835 27.0936L38.4038 25.3875L39.684 27.9467C40.4648 29.5041 40.6213 31.2999 40.1217 32.9684C39.6222 34.6369 38.5041 36.0528 36.995 36.9278L22.2056 45.512C20.4305 46.5551 18.4092 47.1087 16.349 47.1161ZM7.20647 40.9141L7.88948 41.8261C9.44322 43.8949 11.7053 45.3214 14.2451 45.8339C16.7848 46.3463 19.4248 45.909 21.6623 44.6053L36.4464 36.0212C37.3206 35.5121 38.0459 34.7837 38.5506 33.9085C39.0553 33.0332 39.3217 32.0414 39.3234 31.0316C39.3205 30.1341 39.1109 29.2494 38.7105 28.4457L37.9091 26.8361L34.4888 28.5422L32.8754 25.3554C32.8137 25.233 32.7193 25.1301 32.6026 25.0582C32.4858 24.9862 32.3512 24.9479 32.2139 24.9476C32.059 24.9477 31.908 24.9964 31.7825 25.087C31.657 25.1775 31.5635 25.3052 31.5149 25.4519L30.0252 29.9103L15.7681 37.0191L14.3913 35.1842L7.20647 40.9141Z" fill="black"/>
<path d="M72.8981 43.6986H44.4595V25.5699H56.9686V26.643H45.5351V42.6256H71.8225V26.643H60.3889V25.5699H72.8981V43.6986Z" fill="black"/>
<path d="M72.8981 99.9999H44.4595V92.639H45.5351V98.9269H71.8225V92.639H72.8981V99.9999Z" fill="black"/>
<path d="M72.8981 89.2269H71.8225V82.939H45.5351V89.2269H44.4595V81.866H72.8981V89.2269Z" fill="black"/>
<path d="M55.7962 76.1146H27.363V57.9806H39.8721V59.0536H28.4386V75.0416H54.7207V59.0536H43.2871V57.9806H55.7962V76.1146Z" fill="black"/>
<path d="M90.0001 76.1146H61.5615V57.9806H74.0706V59.0536H62.6371V75.0416H88.9245V59.0536H77.491V57.9806H90.0001V76.1146Z" fill="black"/>
<path d="M72.8981 18.1125H44.4648V0H72.8981V18.1125ZM45.5404 17.0395H71.8225V1.07302H45.5404V17.0395Z" fill="black"/>
<path d="M58.6788 38.8058L55.2315 35.3668C54.9881 35.126 54.8213 34.8187 54.752 34.4837C54.6827 34.1487 54.714 33.8009 54.8421 33.4836C54.9701 33.1662 55.1892 32.8937 55.4718 32.6999C55.7544 32.5062 56.0879 32.4 56.4308 32.3946V17.0397H60.9269V32.3946C61.2693 32.401 61.602 32.508 61.8838 32.7021C62.1656 32.8962 62.3838 33.1688 62.5112 33.4859C62.6385 33.803 62.6694 34.1505 62.5999 34.4851C62.5305 34.8196 62.3638 35.1263 62.1207 35.3668L58.6788 38.8058ZM56.4631 33.4676C56.3307 33.4684 56.2015 33.5082 56.0918 33.5819C55.982 33.6557 55.8965 33.7601 55.846 33.8821C55.7954 34.0042 55.782 34.1383 55.8076 34.2679C55.8332 34.3974 55.8967 34.5166 55.9899 34.6103L58.6788 37.2929L61.3678 34.6103C61.461 34.5166 61.5245 34.3974 61.5501 34.2679C61.5757 34.1383 61.5623 34.0042 61.5117 33.8821C61.4612 33.7601 61.3757 33.6557 61.2659 33.5819C61.1561 33.5082 61.027 33.4684 60.8946 33.4676H59.8566V18.1127H57.5119V33.4676H56.4631Z" fill="black"/>
<path d="M41.5823 69.5155L38.1349 66.0765C37.894 65.8347 37.7296 65.5277 37.6617 65.1935C37.5939 64.8593 37.6257 64.5126 37.7534 64.1963C37.881 63.88 38.0987 63.608 38.3797 63.4139C38.6606 63.2198 38.9925 63.1121 39.3342 63.1042V51.698C39.3316 51.3998 39.3883 51.1041 39.5009 50.8279C39.6136 50.5516 39.78 50.3003 39.9904 50.0885C40.2016 49.8771 40.4532 49.7102 40.7304 49.5978C41.0076 49.4853 41.3046 49.4296 41.6038 49.434H56.4578V42.6096H60.9536V49.434H75.8021C76.0975 49.4333 76.3903 49.4908 76.6634 49.6032C76.9365 49.7157 77.1845 49.8809 77.3934 50.0892C77.6023 50.2976 77.7678 50.5452 77.8805 50.8176C77.9932 51.09 78.0509 51.3819 78.0502 51.6766V63.0828C78.393 63.0882 78.7266 63.1944 79.0092 63.3881C79.2917 63.5818 79.5108 63.8544 79.6389 64.1717C79.7669 64.4891 79.7982 64.837 79.7289 65.172C79.6597 65.507 79.4929 65.8142 79.2494 66.055L75.8021 69.4941L72.355 66.055C72.1141 65.8132 71.9494 65.5062 71.8815 65.172C71.8137 64.8378 71.8456 64.4912 71.9732 64.1749C72.1008 63.8586 72.3187 63.5866 72.5997 63.3925C72.8807 63.1984 73.2126 63.0906 73.5543 63.0828V53.9192H43.8519V63.0828C44.1936 63.0906 44.5254 63.1984 44.8064 63.3925C45.0874 63.5866 45.3051 63.8586 45.4327 64.1749C45.5603 64.4912 45.5922 64.8378 45.5243 65.172C45.4565 65.5062 45.2921 65.8132 45.0511 66.055L41.5823 69.5155ZM73.5703 64.1504C73.4379 64.1512 73.3088 64.191 73.199 64.2647C73.0892 64.3385 73.0037 64.4429 72.9532 64.565C72.9026 64.687 72.8893 64.8212 72.9148 64.9508C72.9404 65.0803 73.0039 65.1994 73.0971 65.2932L75.7861 67.9757L78.475 65.2932C78.5687 65.1994 78.6325 65.0802 78.6583 64.9503C78.6842 64.8205 78.6709 64.6859 78.6203 64.5635C78.5706 64.4407 78.485 64.3357 78.3747 64.262C78.2644 64.1883 78.1346 64.1494 78.0018 64.1504H76.9638V51.6713C76.9624 51.3615 76.8383 51.0648 76.6188 50.8457C76.3992 50.6267 76.1018 50.5031 75.7913 50.5016H59.8673V43.6773H57.5226V50.5016H41.593C41.4389 50.5004 41.286 50.5301 41.1437 50.5891C41.0014 50.6481 40.8726 50.7351 40.7648 50.845C40.6552 50.9529 40.5684 51.0816 40.5093 51.2235C40.4502 51.3654 40.4199 51.5176 40.4205 51.6713V64.1504H39.3828C39.25 64.1502 39.12 64.1892 39.0094 64.2625C38.8988 64.3359 38.8124 64.4403 38.7612 64.5625C38.71 64.6848 38.6961 64.8194 38.7216 64.9495C38.747 65.0795 38.8106 65.1991 38.9041 65.2932L41.593 67.9757L44.282 65.2932C44.3752 65.1994 44.4387 65.0803 44.4642 64.9508C44.4898 64.8212 44.4764 64.687 44.4259 64.565C44.3754 64.4429 44.2899 64.3385 44.1801 64.2647C44.0703 64.191 43.9412 64.1512 43.8088 64.1504H42.7708V52.8408H74.6243V64.1504H73.5703Z" fill="black"/>
<path d="M51.354 94.8869C50.8953 94.8857 50.4552 94.7063 50.1269 94.3868C49.7986 94.0673 49.608 93.6328 49.5954 93.1755H36.4517C36.1528 93.178 35.8563 93.1215 35.5794 93.0091C35.3025 92.8968 35.0506 92.7308 34.8383 92.5209C34.6264 92.3102 34.4592 92.0592 34.3465 91.7827C34.2338 91.5062 34.178 91.2098 34.1824 90.9114V75.02H38.6783V88.6688H49.5739C49.5818 88.3279 49.6897 87.9968 49.8842 87.7165C50.0788 87.4362 50.3516 87.219 50.6686 87.0917C50.9857 86.9644 51.3333 86.9325 51.6683 87.0002C52.0033 87.0678 52.3108 87.232 52.5533 87.4724L56.0006 90.9114L52.5533 94.3504C52.2404 94.6805 51.8092 94.8734 51.354 94.8869ZM35.2795 76.1091V90.9275C35.2809 91.2372 35.4047 91.5339 35.6243 91.7529C35.8438 91.972 36.1412 92.0957 36.4517 92.0971H50.671V93.1325C50.6707 93.265 50.7099 93.3946 50.7834 93.505C50.8569 93.6153 50.9615 93.7014 51.084 93.7525C51.2066 93.8036 51.3415 93.8173 51.4719 93.7919C51.6022 93.7666 51.7224 93.7033 51.8167 93.61L54.5056 90.9275L51.8167 88.2449C51.755 88.182 51.6813 88.1321 51.6 88.098C51.5188 88.0639 51.4314 88.0464 51.3432 88.0464C51.1649 88.0464 50.994 88.1171 50.8679 88.2428C50.7418 88.3686 50.671 88.5392 50.671 88.717V89.7525H37.6242V76.1037L35.2795 76.1091Z" fill="black"/>
<path d="M66.0142 94.8869C65.7843 94.8837 65.5573 94.8346 65.3467 94.7425C65.1361 94.6503 64.946 94.517 64.7879 94.3504L61.3408 90.9114L64.7879 87.4724C65.0303 87.232 65.3381 87.0678 65.6731 87.0002C66.0081 86.9325 66.3555 86.9644 66.6726 87.0917C66.9896 87.219 67.2624 87.4362 67.4569 87.7165C67.6515 87.9968 67.7594 88.3279 67.7673 88.6688H78.6632V75.02H83.1591V90.9114C83.1598 91.2061 83.1021 91.498 82.9894 91.7704C82.8767 92.0428 82.7112 92.2904 82.5023 92.4987C82.2934 92.7071 82.0454 92.8722 81.7723 92.9847C81.4992 93.0971 81.2064 93.1547 80.911 93.154H67.7673C67.7656 93.4931 67.6622 93.824 67.4706 94.1041C67.2789 94.3843 67.0077 94.6008 66.6917 94.726C66.4796 94.8262 66.2489 94.881 66.0142 94.8869ZM62.8626 90.9328L65.5515 93.6154C65.6459 93.7087 65.766 93.772 65.8963 93.7973C66.0267 93.8227 66.1616 93.809 66.2842 93.7579C66.4067 93.7068 66.5113 93.6207 66.5848 93.5103C66.6584 93.4 66.6975 93.2704 66.6972 93.1379V92.1025H80.9165C81.227 92.101 81.5244 91.9773 81.7439 91.7583C81.9635 91.5393 82.0873 91.2426 82.0887 90.9328V76.1145H79.744V89.7633H66.6917V88.7278C66.6909 88.5958 66.6512 88.4669 66.5772 88.3574C66.5033 88.2478 66.3986 88.1625 66.2763 88.1121C66.154 88.0617 66.0193 88.0484 65.8895 88.074C65.7596 88.0995 65.6403 88.1627 65.5463 88.2557L62.8626 90.9328Z" fill="black"/>
<path d="M16.4671 100H0V93.9804L9.14251 90.3267L16.4403 95.783L16.4671 100ZM1.07559 98.927H15.3915V96.3196L9.00806 91.5446L1.07559 94.71V98.927Z" fill="black"/>
</svg>
